<?xml version="1.0" encoding="UTF-8" standalone="no"?>
<svg
   xmlns:dc="http://purl.org/dc/elements/1.1/"
   xmlns:cc="http://creativecommons.org/ns#"
   xmlns:rdf="http://www.w3.org/1999/02/22-rdf-syntax-ns#"
   xmlns:svg="http://www.w3.org/2000/svg"
   xmlns="http://www.w3.org/2000/svg"
   xmlns:sodipodi="http://sodipodi.sourceforge.net/DTD/sodipodi-0.dtd"
   xmlns:inkscape="http://www.inkscape.org/namespaces/inkscape"
   width="720"
   height="580"
   viewBox="0 0 190.5 153.45834"
   version="1.1"
   id="svg8"
   inkscape:version="1.0.1 (3bc2e813f5, 2020-09-07)"
   sodipodi:docname="geography.svg">
  <defs
     id="defs2" />
  <sodipodi:namedview
     id="base"
     pagecolor="#ffffff"
     bordercolor="#666666"
     borderopacity="1.0"
     inkscape:pageopacity="0.0"
     inkscape:pageshadow="2"
     inkscape:zoom="0.49497475"
     inkscape:cx="345.77798"
     inkscape:cy="290.74552"
     inkscape:document-units="mm"
     inkscape:current-layer="layer2"
     inkscape:document-rotation="0"
     showgrid="false"
     units="px"
     inkscape:window-width="1920"
     inkscape:window-height="1017"
     inkscape:window-x="-8"
     inkscape:window-y="-8"
     inkscape:window-maximized="1" />
  <metadata
     id="metadata5">
    <rdf:RDF>
      <cc:Work
         rdf:about="">
        <dc:format>image/svg+xml</dc:format>
        <dc:type
           rdf:resource="http://purl.org/dc/dcmitype/StillImage" />
        <dc:title></dc:title>
      </cc:Work>
    </rdf:RDF>
  </metadata>
  <g
     inkscape:label="Layer 1"
     inkscape:groupmode="layer"
     id="layer1" />
  <g
     inkscape:groupmode="layer"
     id="layer2"
     inkscape:label="back">
    <rect
       style="fill:#add8e6;stroke-width:0.264583;fill-opacity:1"
       id="rect17"
       width="195.64128"
       height="159.29263"
       x="-1.0690781"
       y="-2.6726952" />
    <g
       id="g2356"
       transform="matrix(0.16066239,0,0,0.16066239,54.120413,35.599595)">
      <g
         id="g2290">
	<g
   id="g2288">
		<path
   d="m 431.267,343.512 c -0.103,0.103 -0.208,0.201 -0.311,0.304 L 413.245,326.105 C 447.953,291.514 469.464,243.689 469.464,190.932 469.464,85.651 383.813,0 278.532,0 225.944,0 178.255,21.371 143.691,55.884 L 125.822,38.015 c 3.879,-3.907 3.872,-10.219 -0.025,-14.115 -3.905,-3.905 -10.238,-3.905 -14.142,0 -39.407,39.407 -63.663,91.649 -68.298,147.104 -4.581,54.8 10.121,109.686 41.398,154.549 1.944,2.788 5.052,4.282 8.212,4.282 1.974,0 3.968,-0.583 5.71,-1.798 4.53,-3.159 5.643,-9.392 2.484,-13.922 C 45.151,233.777 50.638,126.937 112.328,52.806 l 17.953,17.953 C 103.61,103.598 87.6,145.427 87.6,190.931 c 0,105.28 85.651,190.932 190.932,190.932 45.334,0 87.02,-15.892 119.803,-42.383 l 17.794,17.794 c -73.216,60.556 -178.862,66.565 -258.664,12.436 -4.571,-3.102 -10.789,-1.908 -13.889,2.663 -3.1,4.57 -1.908,10.789 2.663,13.889 37.266,25.277 79.684,38.547 122.293,40.303 V 452 h -36 c -27.57,0 -50,22.43 -50,50 0,5.523 4.477,10 10,10 h 172 c 5.523,0 10,-4.477 10,-10 0,-27.57 -22.43,-50 -50,-50 h -36 v -25.459 c 57.446,-2.483 113.82,-25.829 156.877,-68.886 3.905,-3.905 3.905,-10.237 0,-14.143 -3.905,-3.904 -10.237,-3.904 -14.142,0 z M 275.677,46.275 295.922,20.88 c 70.4,7.144 128.308,57.19 147.099,123.506 l -2.385,2.127 c -2.241,1.999 -4.031,4.42 -5.292,7.09 l -2.005,-5.514 c -0.864,-2.376 -2.136,-4.556 -3.779,-6.48 l -9.026,-10.567 c -4.008,-4.692 -9.845,-7.383 -16.015,-7.383 H 393.47 c -4.909,0 -9.398,2.689 -11.714,7.018 -2.255,4.215 -2.075,9.281 0.451,13.315 -5.861,4.74 -12.428,8.646 -19.383,11.516 L 349.095,129.21 v -5.816 c 0,-2.732 -1.118,-5.346 -3.095,-7.233 L 332.361,103.14 c -1.027,-0.98 -2.25,-1.73 -3.59,-2.201 L 289.173,87.024 c -1.065,-0.374 -2.187,-0.565 -3.315,-0.565 H 251.41 c -11.261,0 -21.675,5.29 -28.385,13.861 l -7.872,-11.027 9.731,-23.589 46.282,-16.226 c 1.775,-0.623 3.338,-1.733 4.511,-3.203 z m 49.859,210.888 c 2.226,7.184 2.226,7.184 -0.792,10.468 -0.531,0.577 -1.025,1.104 -1.488,1.596 -3.469,3.693 -6.465,6.882 -8.859,14.423 -0.47,1.48 -1.004,2.083 -2.434,3.692 -1.287,1.449 -2.888,3.252 -4.408,5.855 -1.887,3.23 -2.511,6.338 -2.966,8.608 -0.41,2.042 -0.568,2.625 -0.982,3.133 -3.537,4.344 -9.227,8.483 -12.144,9.434 -1.144,-1.743 -3.417,-5.935 -6.533,-15.186 -1.099,-3.261 -2.59,-6.547 -4.033,-9.725 -2.775,-6.112 -5.92,-13.04 -4.669,-16.913 l 0.545,-1.67 c 2.549,-7.77 5.185,-15.804 0.417,-27.228 -1.513,-3.627 -3.904,-6.257 -5.825,-8.371 -0.766,-0.843 -1.909,-2.1 -2.205,-2.666 -0.153,-0.731 -0.147,-1.715 -0.139,-2.943 0.026,-4.033 0.071,-10.783 -6.535,-16.967 -9.168,-8.584 -19.888,-5.932 -26.292,-4.348 -1.837,0.455 -3.573,0.884 -5.016,1.054 -9.292,1.091 -17.584,-2.395 -22.738,-9.567 -5.436,-7.563 -6.212,-17.766 -2.027,-26.626 2.062,-4.364 5.307,-8.015 9.064,-12.243 0.859,-0.966 1.726,-1.942 2.591,-2.939 1.519,-1.75 3.128,-4.035 4.833,-6.455 1.771,-2.515 5.043,-7.158 6.548,-8.345 2.819,-1.457 10.452,-1.727 15.042,-1.89 2.146,-0.076 4.179,-0.148 6.042,-0.295 0.001,0.505 0.04,1.013 0.119,1.52 0.482,3.103 2.395,5.799 5.164,7.281 1.26,0.674 3.122,1.915 5.092,3.229 6.006,4.003 12.814,8.542 19.625,8.976 6.763,0.43 10.59,-3.471 12.032,-4.941 0.064,-0.066 0.127,-0.131 0.191,-0.195 0.453,-0.379 0.893,-0.814 1.301,-1.3 0.604,0.166 1.219,0.332 1.84,0.5 3.626,0.982 11.147,3.018 13.007,4.567 2.784,2.999 5.136,9.087 7.213,14.463 1.069,2.768 2.175,5.629 3.381,8.207 0.495,1.057 0.982,2.146 1.477,3.249 3.356,7.488 7.534,16.807 16.32,22.55 3.173,2.074 6.845,3.018 10.202,3.623 -1.807,1.935 -3.902,3.886 -6.07,5.905 -9.109,8.484 -21.586,20.104 -15.891,38.48 z m -160.11,30.06 -5.171,26.991 c -26.317,-25.258 -44.586,-58.831 -50.542,-96.45 l 15.343,-4.984 29.101,22.126 c 1.218,0.926 2.633,1.561 4.135,1.854 l 18.211,3.559 c 2.106,0.412 3.202,1.806 3.668,2.6 0.466,0.794 1.147,2.431 0.479,4.471 -1.695,5.168 -1.703,10.633 -0.022,15.806 l 2.321,7.143 c 0.932,2.868 -0.643,5.958 -3.511,6.89 l -7.281,2.365 c -3.466,1.126 -6.046,4.049 -6.731,7.629 z m 113.105,74.64 c -37.637,0 -72.465,-12.237 -100.735,-32.929 l 6.158,-32.145 1.661,-0.54 c 13.356,-4.338 20.692,-18.734 16.353,-32.09 l -2.321,-7.143 c -0.361,-1.111 -0.359,-2.285 0.005,-3.394 2.275,-6.936 1.462,-14.525 -2.23,-20.821 -3.692,-6.297 -9.919,-10.711 -17.084,-12.112 l -15.929,-3.112 -31.414,-23.886 c -2.609,-1.982 -6.023,-2.562 -9.143,-1.55 l -16.118,5.236 c -0.08,-2.14 -0.134,-4.287 -0.134,-6.446 0,-91.694 72.577,-166.747 163.302,-170.753 l -9.07,11.377 -47.792,16.756 c -2.689,0.943 -4.849,2.989 -5.936,5.624 l -13.55,32.848 c -1.313,3.184 -0.896,6.82 1.105,9.624 l 20.902,29.281 c 0.351,0.491 0.754,0.929 1.177,1.342 -3.781,2.759 -7.098,7.232 -11.186,13.034 -1.343,1.906 -2.732,3.877 -3.588,4.863 -0.814,0.938 -1.629,1.855 -2.437,2.764 -4.38,4.928 -8.91,10.025 -12.199,16.986 -7.29,15.43 -5.807,33.378 3.87,46.842 9.383,13.056 24.824,19.691 41.313,17.757 2.691,-0.316 5.238,-0.946 7.485,-1.502 5.761,-1.425 6.844,-1.38 7.82,-0.466 0.07,0.065 0.123,0.12 0.163,0.162 0.051,0.452 0.045,1.375 0.041,2.073 -0.014,2.016 -0.032,4.776 0.729,7.909 1.254,5.166 4.467,8.701 6.813,11.282 0.769,0.846 1.931,2.125 2.168,2.622 1.821,4.363 1.261,6.512 -0.963,13.291 l -0.574,1.757 c -3.63,11.24 1.427,22.378 5.491,31.329 1.294,2.85 2.516,5.542 3.291,7.842 6.913,20.519 12.431,25.37 16.917,27.409 2.532,1.151 5.091,1.644 7.618,1.643 14.519,-0.001 27.945,-16.248 28.604,-17.057 3.597,-4.417 4.491,-8.878 5.083,-11.83 0.198,-0.986 0.422,-2.104 0.626,-2.453 0.521,-0.893 1.181,-1.635 2.094,-2.664 2.02,-2.274 4.786,-5.39 6.542,-10.92 1.019,-3.21 1.531,-3.755 4.374,-6.781 0.509,-0.542 1.053,-1.121 1.637,-1.756 10.801,-11.752 7.938,-20.989 5.17,-29.922 -1.718,-5.542 0.815,-8.979 10.419,-17.923 4.211,-3.921 8.565,-7.976 12.012,-12.966 1.644,-2.38 6.647,-9.624 3.357,-17.254 -3.237,-7.507 -11.104,-8.713 -16.849,-9.594 -1.688,-0.259 -4.5,-0.69 -5.4,-1.131 -3.845,-2.556 -6.441,-8.348 -8.952,-13.95 -0.54,-1.204 -1.073,-2.392 -1.613,-3.545 -0.913,-1.952 -1.849,-4.374 -2.839,-6.937 -2.754,-7.129 -5.875,-15.209 -11.378,-21.041 -5.14,-5.448 -14.241,-7.912 -22.271,-10.086 -2.527,-0.684 -4.913,-1.331 -6.411,-1.883 -1.84,-0.679 -3.838,-0.802 -5.748,-0.355 -4.155,0.975 -6.808,2.095 -8.869,3.748 -0.694,0.557 -1.363,1.236 -1.955,2.023 -1.598,-0.927 -3.354,-2.063 -4.81,-3.025 0.309,-2.939 -0.434,-5.347 -1.192,-6.95 -4.847,-10.253 -20.007,-9.524 -23,-9.274 -1.458,0.122 -3.352,0.189 -5.356,0.26 -2.875,0.102 -6.013,0.214 -9.176,0.515 l 1.726,-4.809 c 2.277,-6.344 8.336,-10.607 15.076,-10.607 h 32.743 l 35.957,12.635 8.986,8.579 v 3.991 c 0,1.612 0.39,3.199 1.135,4.628 l 18.961,36.32 c 2.328,4.459 7.604,6.495 12.325,4.754 l 5.521,-2.036 c 13.186,-4.862 25.409,-12.686 35.348,-22.624 2.372,-2.373 3.334,-5.691 2.773,-8.833 0.061,0.046 0.117,0.099 0.167,0.158 l 9.026,10.567 c 0.083,0.098 0.148,0.208 0.191,0.327 l 9.961,27.392 c 1.168,3.212 3.896,5.605 7.232,6.345 0.72,0.16 1.445,0.237 2.166,0.237 2.623,0 5.175,-1.033 7.071,-2.929 l 4.742,-4.743 c 1.205,-1.205 2.273,-2.524 3.202,-3.936 0.357,4.501 0.545,9.048 0.545,13.639 0,94.252 -76.68,170.932 -170.932,170.932 z M 324.533,472 c 13.037,0 24.158,8.359 28.286,20 H 204.246 c 4.127,-11.641 15.249,-20 28.287,-20 z"
   id="path2286" />

	</g>

</g>
      <g
         id="g2296">
	<g
   id="g2294">
		<path
   d="m 118.726,338.989 c -5.523,0 -10,4.477 -10,10 v 1.594 c 0,5.523 4.477,10 10,10 5.523,0 10,-4.477 10,-10 v -1.594 c 0,-5.523 -4.477,-10 -10,-10 z"
   id="path2292" />

	</g>

</g>
      <g
         id="g2298">
</g>
      <g
         id="g2300">
</g>
      <g
         id="g2302">
</g>
      <g
         id="g2304">
</g>
      <g
         id="g2306">
</g>
      <g
         id="g2308">
</g>
      <g
         id="g2310">
</g>
      <g
         id="g2312">
</g>
      <g
         id="g2314">
</g>
      <g
         id="g2316">
</g>
      <g
         id="g2318">
</g>
      <g
         id="g2320">
</g>
      <g
         id="g2322">
</g>
      <g
         id="g2324">
</g>
      <g
         id="g2326">
</g>
    </g>
  </g>
</svg>
