<?xml version="1.0" encoding="UTF-8" standalone="no"?>
<svg
   xmlns:dc="http://purl.org/dc/elements/1.1/"
   xmlns:cc="http://creativecommons.org/ns#"
   xmlns:rdf="http://www.w3.org/1999/02/22-rdf-syntax-ns#"
   xmlns:svg="http://www.w3.org/2000/svg"
   xmlns="http://www.w3.org/2000/svg"
   xmlns:sodipodi="http://sodipodi.sourceforge.net/DTD/sodipodi-0.dtd"
   xmlns:inkscape="http://www.inkscape.org/namespaces/inkscape"
   width="720"
   height="580"
   viewBox="0 0 190.5 153.45834"
   version="1.1"
   id="svg8"
   inkscape:version="1.0.1 (3bc2e813f5, 2020-09-07)"
   sodipodi:docname="health.svg">
  <defs
     id="defs2" />
  <sodipodi:namedview
     id="base"
     pagecolor="#ffffff"
     bordercolor="#666666"
     borderopacity="1.0"
     inkscape:pageopacity="0.0"
     inkscape:pageshadow="2"
     inkscape:zoom="0.49497475"
     inkscape:cx="345.77798"
     inkscape:cy="290.74552"
     inkscape:document-units="mm"
     inkscape:current-layer="layer2"
     inkscape:document-rotation="0"
     showgrid="false"
     units="px"
     inkscape:window-width="1920"
     inkscape:window-height="1017"
     inkscape:window-x="-8"
     inkscape:window-y="-8"
     inkscape:window-maximized="1" />
  <metadata
     id="metadata5">
    <rdf:RDF>
      <cc:Work
         rdf:about="">
        <dc:format>image/svg+xml</dc:format>
        <dc:type
           rdf:resource="http://purl.org/dc/dcmitype/StillImage" />
        <dc:title></dc:title>
      </cc:Work>
    </rdf:RDF>
  </metadata>
  <g
     inkscape:label="Layer 1"
     inkscape:groupmode="layer"
     id="layer1" />
  <g
     inkscape:groupmode="layer"
     id="layer2"
     inkscape:label="back">
    <rect
       style="fill:#ff6961;stroke-width:0.264583;fill-opacity:1"
       id="rect17"
       width="195.64128"
       height="159.29263"
       x="-1.0690781"
       y="-2.6726952" />
    <g
       id="g2211"
       transform="matrix(0.19471725,0,0,0.19471725,54.281491,35.760657)">
      <g
         id="g2154">
	<g
   id="g2152">
		<path
   d="M 413.6,204 H 378 c 14.8,-33.6 13.2,-60.8 7.6,-79.2 -9.6,-32.8 -42,-68.4 -90,-68.4 -12.8,0 -25.6,2.4 -38.8,7.2 C 234,72 218.8,81.2 212,86 205.2,81.2 190.4,72 167.2,63.6 154,58.8 140.8,56.4 128.4,56.4 80.4,56.4 48,92 38.4,124.8 32.8,144.4 30.8,174 49.6,211.2 H 6.4 c -3.6,0 -6.4,2.8 -6.4,6.4 0,3.6 2.8,6.4 6.4,6.4 h 50.8 c 2,3.6 4.4,7.2 7.2,10.8 41.6,60 132,125.2 148.4,129.2 v 0.4 c 0,0 0.4,0 0.8,-0.4 0.4,0 0.8,0 1.2,0 v -0.4 c 14,-6.8 100.8,-62.8 146.4,-129.2 4.4,-6 8,-12 11.2,-18 h 42 c 3.6,0 6.4,-2.8 6.4,-6.4 0,-3.6 -3.6,-6 -7.2,-6 z m -64,23.6 c -42.4,62 -120.4,112 -137.2,122.8 C 195.2,339.6 117.6,289.2 74.8,227.6 74,226.4 73.2,225.2 72.4,224 h 58.8 c 2.4,0 4.8,-1.2 6,-3.6 l 26.8,-52.8 42,107.6 c 0.8,2.4 3.6,4 6,4 0,0 0,0 0.4,0 2.8,0 5.2,-2 6,-4.8 l 36.8,-126 19.6,63.6 c 0.8,2.4 2.8,4 5.2,4.4 2.4,0.4 4.8,-0.8 6.4,-2.8 l 15.6,-22.8 13.2,22.4 c 1.2,2 3.2,3.2 5.6,3.2 h 36 c -2.4,4 -4.8,7.6 -7.2,11.2 z M 364,204 h -39.2 l -16.4,-28 c -1.2,-2 -3.2,-3.2 -5.6,-3.2 -2.4,0 -4.4,0.8 -5.6,2.8 l -13.6,20 -22,-71.6 c -0.8,-2.8 -3.6,-4.4 -6.4,-4.8 -2.8,0 -5.6,2 -6.4,4.8 L 211.6,252.4 171.2,149.2 c -0.8,-2.4 -3.2,-4 -5.6,-4 -2.8,0 -4.8,1.2 -6,3.6 l -31.6,62 H 64.4 C 48.4,181.6 44,153.6 51.2,128.4 c 8.4,-28.4 36,-58.8 77.6,-58.8 11.2,0 22.8,2.4 34.4,6.4 29.2,10.8 44.8,23.2 45.2,23.2 2.4,2 5.6,2 8,0 0,0 15.6,-12.4 45.2,-23.2 11.6,-4.4 23.2,-6.4 34.4,-6.4 41.2,0 69.2,30.4 77.6,58.8 6.8,23.2 3.2,48.8 -9.6,75.6 z"
   id="path2150" />

	</g>

</g>
      <g
         id="g2156">
</g>
      <g
         id="g2158">
</g>
      <g
         id="g2160">
</g>
      <g
         id="g2162">
</g>
      <g
         id="g2164">
</g>
      <g
         id="g2166">
</g>
      <g
         id="g2168">
</g>
      <g
         id="g2170">
</g>
      <g
         id="g2172">
</g>
      <g
         id="g2174">
</g>
      <g
         id="g2176">
</g>
      <g
         id="g2178">
</g>
      <g
         id="g2180">
</g>
      <g
         id="g2182">
</g>
      <g
         id="g2184">
</g>
    </g>
  </g>
</svg>
