<?xml version="1.0" encoding="UTF-8" standalone="no"?>
<svg
   xmlns:dc="http://purl.org/dc/elements/1.1/"
   xmlns:cc="http://creativecommons.org/ns#"
   xmlns:rdf="http://www.w3.org/1999/02/22-rdf-syntax-ns#"
   xmlns:svg="http://www.w3.org/2000/svg"
   xmlns="http://www.w3.org/2000/svg"
   xmlns:sodipodi="http://sodipodi.sourceforge.net/DTD/sodipodi-0.dtd"
   xmlns:inkscape="http://www.inkscape.org/namespaces/inkscape"
   width="720"
   height="580"
   viewBox="0 0 190.5 153.45834"
   version="1.1"
   id="svg8"
   inkscape:version="1.0.1 (3bc2e813f5, 2020-09-07)"
   sodipodi:docname="math.svg">
  <defs
     id="defs2" />
  <sodipodi:namedview
     id="base"
     pagecolor="#ffffff"
     bordercolor="#666666"
     borderopacity="1.0"
     inkscape:pageopacity="0.0"
     inkscape:pageshadow="2"
     inkscape:zoom="0.49497475"
     inkscape:cx="345.77798"
     inkscape:cy="290.74552"
     inkscape:document-units="mm"
     inkscape:current-layer="layer2"
     inkscape:document-rotation="0"
     showgrid="false"
     units="px"
     inkscape:window-width="1477"
     inkscape:window-height="1040"
     inkscape:window-x="366"
     inkscape:window-y="7"
     inkscape:window-maximized="0" />
  <metadata
     id="metadata5">
    <rdf:RDF>
      <cc:Work
         rdf:about="">
        <dc:format>image/svg+xml</dc:format>
        <dc:type
           rdf:resource="http://purl.org/dc/dcmitype/StillImage" />
        <dc:title></dc:title>
      </cc:Work>
    </rdf:RDF>
  </metadata>
  <g
     inkscape:label="Layer 1"
     inkscape:groupmode="layer"
     id="layer1" />
  <g
     inkscape:groupmode="layer"
     id="layer2"
     inkscape:label="back">
    <rect
       style="fill:#779ecb;stroke-width:0.264583;fill-opacity:1"
       id="rect17"
       width="195.64128"
       height="159.29263"
       x="-1.0690781"
       y="-2.6726952" />
    <g
       id="g2047"
       transform="matrix(0.16018076,0,0,0.16018076,54.243886,35.722812)">
      <g
         id="g1918">
	<g
   id="g1916">
		<path
   d="M 305.414,232.502 H 229.31 v 0 c -4.522,0 -8.485,3.023 -9.682,7.383 l -13.274,48.387 -0.502,-2.054 c -1.097,-4.497 -5.125,-7.66 -9.753,-7.66 h -33.21 c -5.545,0 -10.039,4.496 -10.039,10.039 0,5.543 4.495,10.039 10.039,10.039 h 25.325 l 7.818,32.036 c 1.084,4.445 5.037,7.594 9.611,7.659 0.048,10e-4 0.096,10e-4 0.145,10e-4 4.515,0 8.483,-3.019 9.68,-7.383 l 21.499,-78.369 h 68.448 c 5.545,0 10.039,-4.496 10.039,-10.039 0,-5.543 -4.495,-10.039 -10.04,-10.039 z"
   id="path1914" />

	</g>

</g>
      <g
         id="g1924">
	<g
   id="g1922">
		<path
   d="m 286.517,299.556 11.005,-11.004 c 3.92,-3.921 3.921,-10.278 0,-14.198 -3.92,-3.918 -10.277,-3.919 -14.197,0 l -11.005,11.005 -11.005,-11.005 c -3.92,-3.919 -10.277,-3.919 -14.197,0 -3.92,3.92 -3.92,10.277 0,14.198 l 11.005,11.004 -11.005,11.004 c -3.92,3.92 -3.921,10.277 0,14.198 1.961,1.96 4.53,2.94 7.099,2.94 2.569,0 5.139,-0.981 7.099,-2.94 l 11.005,-11.005 11.005,11.005 c 1.961,1.96 4.53,2.94 7.099,2.94 2.569,0 5.139,-0.981 7.099,-2.94 3.92,-3.92 3.92,-10.277 0,-14.198 z"
   id="path1920" />

	</g>

</g>
      <g
         id="g1930">
	<g
   id="g1928">
		<path
   d="m 297.335,178.343 7.158,-7.157 c 3.92,-3.92 3.921,-10.277 0,-14.198 -3.921,-3.918 -10.277,-3.919 -14.197,0 l -7.158,7.158 -7.158,-7.158 c -3.92,-3.919 -10.277,-3.919 -14.197,0 -3.92,3.92 -3.92,10.277 0,14.198 l 7.158,7.157 -7.158,7.157 c -3.92,3.92 -3.921,10.277 0,14.198 1.961,1.96 4.53,2.94 7.099,2.94 2.569,0 5.139,-0.981 7.099,-2.94 l 7.158,-7.158 7.158,7.158 c 1.961,1.96 4.53,2.94 7.099,2.94 2.569,0 5.139,-0.981 7.099,-2.94 3.92,-3.92 3.92,-10.277 0,-14.198 z"
   id="path1926" />

	</g>

</g>
      <g
         id="g1936">
	<g
   id="g1934">
		<path
   d="m 278.562,121.281 c -7.76,-19.767 -33.95,-21.24 -45.856,-4.565 -3.934,5.51 -6.125,12.108 -7.249,18.987 -1.736,0 -3.472,0 -5.208,0 -12.919,0 -12.941,20.078 0,20.078 1.458,0 2.915,0 4.372,0 0.047,0.891 0.102,1.775 0.165,2.647 0,0.007 0,0.013 0,0.02 0.29,4.072 0.381,8.16 0.196,12.239 -0.269,5.907 -0.447,9.049 -2.897,15.254 -0.037,0.064 -0.084,0.151 -0.154,0.283 -0.351,0.672 -0.702,1.331 -1.081,1.988 -0.187,0.323 -0.393,0.642 -0.607,0.956 -0.083,0.078 -0.444,0.498 -0.767,0.828 -1.09,1.114 -2.16,1.622 -3.25,1.825 0.471,-0.087 -2.716,0.015 -3.079,-0.061 -1.321,-0.279 -1.409,-0.636 -1.646,-0.776 -0.073,-0.043 -0.369,-0.343 -0.611,-0.587 -0.203,-0.275 -0.469,-0.626 -0.543,-0.732 -0.327,-0.467 -0.502,-0.728 -0.576,-0.838 -2.263,-4.234 -6.608,-6.949 -11.67,-5.558 -4.808,1.321 -9.004,7.274 -7.011,12.349 7.759,19.767 33.949,21.24 45.855,4.564 8.274,-11.589 8.896,-27.982 7.921,-41.713 0,-0.007 0,-0.013 0,-0.02 -0.063,-0.888 -0.112,-1.778 -0.156,-2.667 2.199,0 4.396,0 6.595,0 12.919,0 12.941,-20.078 0,-20.078 -1.782,0 -3.564,0 -5.346,0 0.385,-1.421 0.901,-2.956 1.609,-4.747 0.037,-0.064 0.084,-0.15 0.154,-0.283 0.351,-0.672 0.702,-1.331 1.081,-1.988 0.187,-0.323 0.393,-0.643 0.607,-0.956 0.083,-0.078 0.444,-0.498 0.767,-0.828 1.09,-1.114 2.16,-1.622 3.25,-1.824 -0.471,0.087 2.716,-0.015 3.079,0.061 1.321,0.279 1.409,0.636 1.646,0.776 0.073,0.043 0.37,0.343 0.611,0.587 0.203,0.275 0.47,0.627 0.543,0.732 0.327,0.467 0.501,0.728 0.576,0.838 2.263,4.235 6.608,6.949 11.67,5.558 4.807,-1.321 9.003,-7.274 7.01,-12.349 z"
   id="path1932" />

	</g>

</g>
      <g
         id="g1942">
	<g
   id="g1940">
		<path
   d="m 163.571,171.726 c -5.545,0 -10.039,4.496 -10.039,10.039 v 5.509 c 0,2.554 -2.077,4.631 -4.631,4.631 -2.554,0 -4.631,-2.077 -4.631,-4.631 v -53.752 h 14.406 c 5.545,0 10.039,-4.496 10.039,-10.039 0,-5.544 -4.495,-10.039 -10.039,-10.039 H 70.58 c -5.545,0 -10.039,4.496 -10.039,10.039 0,5.544 4.495,10.038 10.039,10.038 h 15.79 v 10.24 c 0,19.297 -7.514,37.438 -21.16,51.084 -3.92,3.92 -3.92,10.277 0,14.198 1.961,1.96 4.53,2.94 7.099,2.94 2.569,0 5.139,-0.981 7.099,-2.94 17.437,-17.438 27.04,-40.622 27.04,-65.281 v -10.24 h 17.743 v 53.752 c 0,13.625 11.085,24.71 24.71,24.71 13.624,0 24.709,-11.084 24.709,-24.71 v -5.509 c 0,-5.543 -4.494,-10.039 -10.039,-10.039 z"
   id="path1938" />

	</g>

</g>
      <g
         id="g1948">
	<g
   id="g1946">
		<path
   d="m 441.427,201.949 c 5.545,0 10.039,-4.496 10.039,-10.039 v -13.427 c 0,-5.544 -4.495,-10.039 -10.039,-10.039 h -78.462 c -4.06,0 -7.721,2.447 -9.275,6.197 -1.554,3.752 -0.695,8.07 2.175,10.941 l 32.133,32.133 -32.133,32.133 c -2.87,2.872 -3.73,7.19 -2.175,10.942 1.554,3.751 5.214,6.197 9.275,6.197 h 78.462 c 5.545,0 10.039,-4.496 10.039,-10.039 v -13.427 c 0,-5.544 -4.495,-10.039 -10.039,-10.039 -5.544,0 -10.039,4.496 -10.039,10.039 v 3.388 h -44.187 l 22.093,-22.093 c 3.92,-3.92 3.92,-10.277 0,-14.198 l -22.093,-22.093 h 44.187 v 3.388 c 0,5.541 4.495,10.036 10.039,10.036 z"
   id="path1944" />

	</g>

</g>
      <g
         id="g1954">
	<g
   id="g1952">
		<path
   d="M 501.961,19.577 H 10.039 C 4.495,19.577 0,24.073 0,29.616 v 44.173 295.675 c 0,5.544 4.495,10.039 10.039,10.039 h 226.925 l -66.547,97.21 c -3.132,4.575 -1.963,10.822 2.613,13.955 1.735,1.188 3.708,1.756 5.662,1.756 3.201,0 6.348,-1.528 8.292,-4.37 l 69.019,-100.819 69.019,100.819 c 1.946,2.842 5.091,4.37 8.292,4.37 1.954,0 3.928,-0.569 5.662,-1.756 4.575,-3.132 5.745,-9.381 2.613,-13.954 l -66.547,-97.21 h 226.917 c 5.545,0 10.039,-4.496 10.039,-10.039 V 73.789 29.616 C 512,24.073 507.505,19.577 501.961,19.577 Z M 491.922,359.424 H 256.093 c -0.015,0 -0.029,0 -0.044,0 h -0.11 c -0.003,0 -0.007,0 -0.01,0 H 20.078 V 83.828 h 471.843 v 275.596 z m 0,-295.674 H 20.078 V 39.655 H 491.921 V 63.75 Z"
   id="path1950" />

	</g>

</g>
      <g
         id="g1960">
	<g
   id="g1958">
		<path
   d="m 409.471,307.619 h -60.317 c -5.545,0 -10.039,4.496 -10.039,10.039 0,5.544 4.495,10.039 10.039,10.039 h 60.317 c 5.545,0 10.039,-4.496 10.039,-10.039 0,-5.543 -4.495,-10.039 -10.039,-10.039 z"
   id="path1956" />

	</g>

</g>
      <g
         id="g1966">
	<g
   id="g1964">
		<path
   d="m 441.427,307.619 c -12.919,0 -12.941,20.078 0,20.078 12.92,10e-4 12.941,-20.078 0,-20.078 z"
   id="path1962" />

	</g>

</g>
      <g
         id="g1968">
</g>
      <g
         id="g1970">
</g>
      <g
         id="g1972">
</g>
      <g
         id="g1974">
</g>
      <g
         id="g1976">
</g>
      <g
         id="g1978">
</g>
      <g
         id="g1980">
</g>
      <g
         id="g1982">
</g>
      <g
         id="g1984">
</g>
      <g
         id="g1986">
</g>
      <g
         id="g1988">
</g>
      <g
         id="g1990">
</g>
      <g
         id="g1992">
</g>
      <g
         id="g1994">
</g>
      <g
         id="g1996">
</g>
    </g>
  </g>
</svg>
