<?xml version="1.0" encoding="UTF-8" standalone="no"?>
<svg
   xmlns:dc="http://purl.org/dc/elements/1.1/"
   xmlns:cc="http://creativecommons.org/ns#"
   xmlns:rdf="http://www.w3.org/1999/02/22-rdf-syntax-ns#"
   xmlns:svg="http://www.w3.org/2000/svg"
   xmlns="http://www.w3.org/2000/svg"
   xmlns:sodipodi="http://sodipodi.sourceforge.net/DTD/sodipodi-0.dtd"
   xmlns:inkscape="http://www.inkscape.org/namespaces/inkscape"
   width="720"
   height="580"
   viewBox="0 0 190.5 153.45834"
   version="1.1"
   id="svg8"
   inkscape:version="1.0.1 (3bc2e813f5, 2020-09-07)"
   sodipodi:docname="science.svg">
  <defs
     id="defs2" />
  <sodipodi:namedview
     id="base"
     pagecolor="#ffffff"
     bordercolor="#666666"
     borderopacity="1.0"
     inkscape:pageopacity="0.0"
     inkscape:pageshadow="2"
     inkscape:zoom="0.49497475"
     inkscape:cx="345.77798"
     inkscape:cy="290.74552"
     inkscape:document-units="mm"
     inkscape:current-layer="layer2"
     inkscape:document-rotation="0"
     showgrid="false"
     units="px"
     inkscape:window-width="1477"
     inkscape:window-height="1040"
     inkscape:window-x="366"
     inkscape:window-y="7"
     inkscape:window-maximized="0" />
  <metadata
     id="metadata5">
    <rdf:RDF>
      <cc:Work
         rdf:about="">
        <dc:format>image/svg+xml</dc:format>
        <dc:type
           rdf:resource="http://purl.org/dc/dcmitype/StillImage" />
        <dc:title></dc:title>
      </cc:Work>
    </rdf:RDF>
  </metadata>
  <g
     inkscape:label="Layer 1"
     inkscape:groupmode="layer"
     id="layer1" />
  <g
     inkscape:groupmode="layer"
     id="layer2"
     inkscape:label="back">
    <rect
       style="fill:#77dd77;stroke-width:0.264583;fill-opacity:1"
       id="rect17"
       width="195.64128"
       height="159.29263"
       x="-1.0690781"
       y="-2.6726952" />
    <g
       id="g1595"
       transform="matrix(0.14347564,0,0,0.14347564,58.520308,39.999403)">
      <g
         id="g1367">
	<g
   id="g1365">
		<path
   d="M 290.359,432 181.335,263.467 V 128 c 0,-5.891 -4.776,-10.667 -10.667,-10.667 h -53.333 c -5.891,0 -10.667,4.776 -10.667,10.667 V 263.765 L 7.266,432.747 C 2.511,440.829 0.003,450.035 0.003,459.413 0.002,488.455 23.546,511.999 52.588,512 h 194.24 c 9.983,-0.003 19.752,-2.887 28.136,-8.306 24.049,-15.547 30.942,-47.645 15.395,-71.694 z m -43.531,58.667 H 52.588 C 46.997,490.676 41.505,489.185 36.686,486.349 21.81,477.595 16.847,458.439 25.601,443.563 L 126.53,272.075 c 0.964,-1.639 1.472,-3.506 1.472,-5.408 v -128 h 32 v 128 c -0.001,2.055 0.592,4.066 1.707,5.792 l 110.72,171.125 c 3.194,4.935 4.894,10.687 4.896,16.566 0.005,16.848 -13.648,30.511 -30.497,30.517 z"
   id="path1363" />

	</g>

</g>
      <g
         id="g1373">
	<g
   id="g1371">
		<path
   d="M 153.655,310.112 135.266,299.307 44.695,453.259 c -0.966,1.642 -1.475,3.514 -1.473,5.419 0.006,5.891 4.787,10.662 10.678,10.655 h 74.101 V 448 H 72.535 Z"
   id="path1369" />

	</g>

</g>
      <g
         id="g1379">
	<g
   id="g1377">
		<path
   d="m 486.252,245.333 h -166.25 c -23.564,0 -42.667,19.103 -42.667,42.667 v 170.667 c 0.035,29.441 23.893,53.298 53.333,53.333 h 96 c 29.441,-0.035 53.298,-23.893 53.333,-53.333 V 313.749 L 504.47,289.29 c 4.817,-4.826 7.523,-11.365 7.527,-18.183 0.009,-14.226 -11.518,-25.766 -25.745,-25.774 z m 3.126,28.875 -27.584,27.584 c -2,2 -3.125,4.713 -3.125,7.541 v 149.333 c 0,17.673 -14.327,32 -32,32 h -96 c -17.673,0 -32,-14.327 -32,-32 V 288 c 0,-11.782 9.551,-21.333 21.333,-21.333 h 166.251 c 1.174,-10e-4 2.301,0.465 3.131,1.296 1.722,1.726 1.72,4.522 -0.006,6.245 z"
   id="path1375" />

	</g>

</g>
      <g
         id="g1385">
	<g
   id="g1383">
		<path
   d="M 416.002,309.333 V 448 h -32 v 21.333 h 42.667 c 5.891,0 10.667,-4.776 10.667,-10.667 V 309.333 Z"
   id="path1381" />

	</g>

</g>
      <g
         id="g1391">
	<g
   id="g1389">
		<path
   d="M 298.668,154.496 V 10.667 C 298.668,4.776 293.893,0 288.002,0 h -74.667 c -5.891,0 -10.667,4.776 -10.667,10.667 v 146.859 c -13.018,4.008 -25.541,9.472 -37.333,16.288 l 10.667,18.464 c 12.532,-7.236 25.988,-12.737 40,-16.352 4.712,-1.217 8.004,-5.469 8,-10.336 V 21.333 h 53.333 v 141.771 c 0.002,5.12 3.642,9.517 8.672,10.475 37.402,7.15 71.033,27.393 94.859,57.099 l 16.629,-13.355 c -25.101,-31.281 -59.851,-53.372 -98.827,-62.827 z"
   id="path1387" />

	</g>

</g>
      <g
         id="g1397">
	<g
   id="g1395">
		<path
   d="m 453.335,149.333 c -20.619,0 -37.333,16.715 -37.333,37.333 0,20.619 16.715,37.333 37.333,37.333 20.619,0 37.333,-16.715 37.333,-37.333 0,-20.618 -16.714,-37.333 -37.333,-37.333 z m 0,53.334 c -8.837,0 -16,-7.163 -16,-16 0,-8.837 7.163,-16 16,-16 8.837,0 16,7.163 16,16 0,8.837 -7.163,16 -16,16 z"
   id="path1393" />

	</g>

</g>
      <g
         id="g1403">
	<g
   id="g1401">
		<path
   d="m 416.002,74.667 c -17.673,0 -32,14.327 -32,32 0,17.673 14.327,32 32,32 17.673,0 32,-14.327 32,-32 0,-17.673 -14.327,-32 -32,-32 z m 0,42.666 c -5.891,0 -10.667,-4.776 -10.667,-10.667 0,-5.891 4.776,-10.666 10.667,-10.666 5.891,0 10.667,4.776 10.667,10.667 0,5.891 -4.776,10.666 -10.667,10.666 z"
   id="path1399" />

	</g>

</g>
      <g
         id="g1409">
	<g
   id="g1407">
		<path
   d="m 37.335,85.333 c -20.619,0 -37.333,16.715 -37.333,37.333 0,20.619 16.714,37.334 37.333,37.334 20.619,0 37.333,-16.715 37.333,-37.333 0,-20.619 -16.714,-37.334 -37.333,-37.334 z m 0,53.334 c -8.837,0 -16,-7.163 -16,-16 0,-8.837 7.163,-16 16,-16 8.837,0 16,7.163 16,16 0,8.837 -7.163,16 -16,16 z"
   id="path1405" />

	</g>

</g>
      <g
         id="g1415">
	<g
   id="g1413">
		<path
   d="m 85.335,10.667 c -17.673,0 -32,14.327 -32,32 0,17.673 14.327,32 32,32 17.673,0 32,-14.327 32,-32 0,-17.673 -14.327,-32 -32,-32 z m 0,42.666 c -5.891,0 -10.667,-4.776 -10.667,-10.667 0,-5.89 4.776,-10.666 10.667,-10.666 5.891,0 10.667,4.776 10.667,10.667 0,5.891 -4.776,10.666 -10.667,10.666 z"
   id="path1411" />

	</g>

</g>
      <g
         id="g1421">
	<g
   id="g1419">
		<rect
   x="320.00201"
   y="309.33301"
   width="32"
   height="21.333"
   id="rect1417" />

	</g>

</g>
      <g
         id="g1427">
	<g
   id="g1425">
		<rect
   x="320.00201"
   y="352"
   width="21.333"
   height="21.333"
   id="rect1423" />

	</g>

</g>
      <g
         id="g1433">
	<g
   id="g1431">
		<rect
   x="320.00201"
   y="394.66699"
   width="32"
   height="21.333"
   id="rect1429" />

	</g>

</g>
      <g
         id="g1439">
	<g
   id="g1437">
		<rect
   x="320.00201"
   y="437.33301"
   width="21.333"
   height="21.333"
   id="rect1435" />

	</g>

</g>
      <g
         id="g1445">
	<g
   id="g1443">
		<rect
   x="21.334999"
   y="192"
   width="21.333"
   height="21.333"
   id="rect1441" />

	</g>

</g>
      <g
         id="g1451">
	<g
   id="g1449">
		<rect
   x="53.334999"
   y="245.33299"
   width="21.333"
   height="21.333"
   id="rect1447" />

	</g>

</g>
      <g
         id="g1457">
	<g
   id="g1455">
		<rect
   x="234.668"
   y="288"
   width="21.333"
   height="21.333"
   id="rect1453" />

	</g>

</g>
      <g
         id="g1463">
	<g
   id="g1461">
		<rect
   x="213.33501"
   y="245.33299"
   width="21.333"
   height="21.333"
   id="rect1459" />

	</g>

</g>
      <g
         id="g1469">
	<g
   id="g1467">
		<rect
   x="202.668"
   y="202.66701"
   width="21.333"
   height="21.333"
   id="rect1465" />

	</g>

</g>
      <g
         id="g1475">
	<g
   id="g1473">
		<rect
   x="213.33501"
   y="437.33301"
   width="21.333"
   height="21.333"
   id="rect1471" />

	</g>

</g>
      <g
         id="g1481">
	<g
   id="g1479">
		<rect
   x="181.33501"
   y="394.66699"
   width="21.333"
   height="21.333"
   id="rect1477" />

	</g>

</g>
      <g
         id="g1483">
</g>
      <g
         id="g1485">
</g>
      <g
         id="g1487">
</g>
      <g
         id="g1489">
</g>
      <g
         id="g1491">
</g>
      <g
         id="g1493">
</g>
      <g
         id="g1495">
</g>
      <g
         id="g1497">
</g>
      <g
         id="g1499">
</g>
      <g
         id="g1501">
</g>
      <g
         id="g1503">
</g>
      <g
         id="g1505">
</g>
      <g
         id="g1507">
</g>
      <g
         id="g1509">
</g>
      <g
         id="g1511">
</g>
    </g>
  </g>
</svg>
